<svg width="22" height="22" viewBox="0 0 22 22" fill="none" xmlns="http://www.w3.org/2000/svg">
<g clip-path="url(#clip0_1_40)">
<path d="M4.98068 7.25248V21.3772H0.280961V7.25248H4.98068ZM5.28718 2.88482C5.28718 3.58297 5.04029 4.16191 4.54645 4.62168C4.05264 5.08142 3.41409 5.31132 2.63082 5.31132H2.60528C1.82199 5.31132 1.19196 5.08142 0.715174 4.62168C0.238392 4.16191 0 3.58297 0 2.88482C0 2.18667 0.246905 1.60773 0.740715 1.14797C1.23453 0.688215 1.87308 0.458338 2.65636 0.458338C3.43964 0.458338 4.06969 0.688215 4.54645 1.14797C5.02324 1.60773 5.27016 2.18667 5.28718 2.88482ZM21.8894 13.2804V21.3772H17.2153V13.8168C17.2153 12.8121 17.0194 12.0288 16.6278 11.4669C16.2362 10.905 15.6317 10.624 14.8143 10.624C14.2184 10.624 13.7245 10.7858 13.3329 11.1093C12.9413 11.4329 12.6348 11.8415 12.4134 12.3353C12.3112 12.6248 12.2601 13.008 12.2601 13.4847V21.3772H7.56042C7.57744 17.58 7.58597 14.5064 7.58597 12.1566C7.58597 9.80668 7.58597 8.40189 7.58597 7.94212L7.56042 7.25248H12.2601V9.29586H12.2346C12.4219 8.98935 12.6177 8.72541 12.8221 8.50404C13.0264 8.28269 13.2903 8.03578 13.6138 7.76334C13.9374 7.49088 14.3546 7.28655 14.8654 7.15034C15.3763 7.01412 15.9212 6.93749 16.5001 6.92047C18.1178 6.92047 19.4204 7.45684 20.408 8.52958C21.3956 9.60236 21.8894 11.186 21.8894 13.2804Z" fill="black"/>
</g>
<defs>
<clipPath id="clip0_1_40">
<rect width="22" height="22" fill="white"/>
</clipPath>
</defs>
</svg>
