<svg width="22" height="22" viewBox="0 0 22 22" fill="none" xmlns="http://www.w3.org/2000/svg">
<path d="M2.53845 7.85267C2.53845 6.90958 2.70349 6.02151 3.03357 5.18845C3.36365 4.35541 3.81948 3.6245 4.40105 2.99578C4.98262 2.36705 5.65063 1.82478 6.40512 1.36895C7.15958 0.913126 7.96907 0.567329 8.83356 0.331554C9.69807 0.0957841 10.5861 -0.0142438 11.4978 0.00147571C12.881 0.00147571 14.1699 0.292261 15.3645 0.873831C16.559 1.4554 17.5257 2.30418 18.2644 3.42015C19.0032 4.53615 19.3726 5.79361 19.3726 7.1925C19.3726 8.04128 19.294 8.86651 19.1368 9.66813C18.9796 10.4697 18.7124 11.2478 18.3352 12.0023C17.9579 12.7567 17.5178 13.409 17.0148 13.9592C16.5119 14.5093 15.8831 14.9651 15.1287 15.3266C14.3742 15.6882 13.5411 15.8532 12.6295 15.8218C12.0322 15.8218 11.4428 15.6803 10.8612 15.3974C10.2796 15.1144 9.85523 14.7294 9.58804 14.2421C9.50943 14.5879 9.39157 15.083 9.23438 15.7275C9.07719 16.3719 8.96716 16.7884 8.90429 16.9771C8.84142 17.1657 8.75498 17.48 8.64495 17.9201C8.53492 18.3602 8.41702 18.6667 8.29128 18.8396C8.16554 19.0125 8.03194 19.2876 7.89046 19.6648C7.74901 20.0421 7.54467 20.3879 7.27748 20.7023C7.01026 21.0166 6.73518 21.3938 6.45225 21.834L6.28722 21.9047L6.16933 21.7632C6.02788 20.38 5.95714 19.5548 5.95714 19.2876C5.95714 18.486 6.05146 17.5822 6.24007 16.5762C6.4287 15.5703 6.71947 14.305 7.11242 12.7803C7.50538 11.2557 7.7333 10.3676 7.79617 10.1161C7.51324 9.55023 7.37177 8.81148 7.37177 7.89983C7.37177 7.16108 7.59969 6.47734 8.05552 5.84861C8.51134 5.21989 9.0929 4.89768 9.80023 4.88194C10.3346 4.88194 10.7512 5.06271 11.0498 5.42424C11.3485 5.78575 11.4978 6.2337 11.4978 6.76813C11.4978 7.34969 11.3092 8.18276 10.9319 9.2673C10.5547 10.3518 10.3582 11.1771 10.3425 11.7429C10.3425 12.293 10.539 12.7489 10.9319 13.1104C11.3249 13.4719 11.8043 13.6527 12.3701 13.6527C12.8574 13.6527 13.3054 13.5426 13.714 13.3226C14.1227 13.1025 14.4685 12.8039 14.7514 12.4266C15.0344 12.0494 15.278 11.6329 15.4823 11.1771C15.6867 10.7212 15.8517 10.2418 15.9774 9.73886C16.1032 9.23588 16.1896 8.74861 16.2368 8.27708C16.2839 7.80551 16.3154 7.36543 16.3311 6.95674C16.3311 5.44779 15.8517 4.26896 14.8929 3.42015C13.9341 2.57139 12.6766 2.147 11.1205 2.147C9.37583 2.147 7.91404 2.71285 6.73518 3.84456C5.55634 4.97626 4.9669 6.41447 4.9669 8.15918C4.9669 8.55213 5.02192 8.92938 5.13194 9.29088C5.24197 9.65241 5.35987 9.93534 5.48561 10.1397C5.61134 10.344 5.72924 10.5483 5.83927 10.7527C5.9493 10.957 6.0043 11.0906 6.0043 11.1535C6.0043 11.3893 5.94143 11.7036 5.81569 12.0966C5.68992 12.4895 5.5249 12.686 5.32056 12.686C5.30484 12.686 5.23411 12.6781 5.10837 12.6624C4.65254 12.521 4.25173 12.2773 3.90593 11.9315C3.56013 11.5857 3.29292 11.1692 3.1043 10.6819C2.91569 10.1947 2.77422 9.72312 2.67992 9.2673C2.58561 8.81148 2.53845 8.33995 2.53845 7.85267Z" fill="black"/>
</svg>
