<svg width="22" height="18" viewBox="0 0 22 18" fill="none" xmlns="http://www.w3.org/2000/svg">
<path d="M21.8446 2.19347C21.2316 3.08812 20.486 3.85851 19.6079 4.50466C19.6079 4.63722 19.6079 4.82773 19.6079 5.07627C19.6079 6.2857 19.434 7.48687 19.086 8.67975C18.7381 9.87263 18.2079 11.0241 17.4956 12.1341C16.7831 13.2442 15.9299 14.2134 14.9358 15.0418C13.9418 15.8702 12.7489 16.5494 11.3572 17.0796C9.96549 17.6098 8.46614 17.8583 6.85904 17.8252C4.35731 17.8252 2.07097 17.1542 0 15.8122C0.314787 15.8453 0.670994 15.8619 1.06862 15.8619C3.15617 15.8619 5.01175 15.224 6.63538 13.9483C5.65789 13.9317 4.78809 13.6335 4.02597 13.0536C3.26385 12.4738 2.73368 11.7365 2.43546 10.8418C2.75025 10.8915 3.0319 10.9164 3.28041 10.9164C3.67804 10.9164 4.07568 10.8667 4.47328 10.7673C3.42953 10.5519 2.568 10.0383 1.88872 9.22648C1.20945 8.41465 0.869806 7.46202 0.869806 6.36853V6.31882C1.49938 6.66675 2.17866 6.85729 2.90764 6.89044C2.29463 6.47624 1.80588 5.94607 1.4414 5.29993C1.0769 4.65378 0.89466 3.94137 0.89466 3.16269C0.89466 2.35086 1.10176 1.59703 1.51595 0.90118C2.64256 2.27631 4.00112 3.37805 5.59163 4.20644C7.18211 5.03483 8.90515 5.49043 10.7608 5.57329C10.6779 5.22536 10.6365 4.88573 10.6365 4.55436C10.6365 3.31178 11.0755 2.25974 11.9536 1.39821C12.8317 0.536691 13.8838 0.0976456 15.1098 0.0810776C16.4186 0.0810776 17.5121 0.553256 18.3902 1.49762C19.4008 1.29881 20.3535 0.934317 21.2481 0.40415C20.9002 1.46448 20.2375 2.29287 19.26 2.88931C20.1215 2.7899 20.9831 2.55796 21.8446 2.19347Z" fill="black"/>
</svg>
